# File created by Blade
# Date/Time:  Wed Jan 21 17:05:57 2015
# Frame Rate: 120.000 fps
#------------------------------------------------------
:FULLY-SPECIFIED
:DEGREES
259
root 19.435735 8.870311 -13.069099 -181.324251 4.037986 -178.970741
Spine 79.619365 4.260198 0.721491
Head -11.212610 -0.292587 2.937328
LeftShoulder 23.181737 -62.056422 23.755227
LeftArm 51.651542 3.998290 -13.088944
LeftForeArm -2.403483 0.000000 0.359833
LeftHand -5.606171 0.000000 19.028012
LeftHandThumb1 -26.253704 0.000000 33.147579
RightShoulder 10.245170 27.187240 -37.638602
RightArm 53.612896 37.452987 20.778198
RightForeArm -22.747630 -0.000000 11.485351
RightHand -10.654739 -0.000000 -19.849824
RightHandThumb1 -24.326973 -0.000000 -32.862282
LeftUpLeg -120.755869 29.129121 -7.872616
LeftLeg 147.187084 -0.000000 -0.000000
LeftFoot -46.132314 19.586559 -11.713043
LeftToeBase 24.977161 -0.000000 -0.000000
RightUpLeg -119.526967 -19.759514 10.045012
RightLeg 144.976227 -0.000000 -0.000000
RightFoot -46.501566 -24.655671 14.126026
RightToeBase 24.877851 -0.000000 -0.000000
260
root 19.434886 8.871527 -13.081160 -181.353419 4.035078 -178.966047
Spine 79.610347 4.263718 0.722498
Head -11.221255 -0.269688 2.959975
LeftShoulder 23.261653 -62.058446 23.671509
LeftArm 51.689792 4.159278 -13.059391
LeftForeArm -2.338005 -0.000000 0.418234
LeftHand -5.650545 -0.000000 18.956261
LeftHandThumb1 -26.253704 0.000000 33.147579
RightShoulder 10.259555 27.082633 -37.592473
RightArm 53.578819 37.333275 20.620639
RightForeArm -22.895424 -0.000000 11.430397
RightHand -10.509486 -0.000000 -19.375903
RightHandThumb1 -24.326973 -0.000000 -32.862282
LeftUpLeg -120.709056 29.178210 -7.862883
LeftLeg 147.217920 -0.000000 -0.000000
LeftFoot -46.143677 19.525448 -11.718962
LeftToeBase 24.937611 -0.000000 -0.000000
RightUpLeg -119.467797 -19.809499 10.030869
RightLeg 145.002405 -0.000000 -0.000000
RightFoot -46.521403 -24.574619 14.082582
RightToeBase 24.669346 -0.000000 -0.000000
261
root 19.436157 8.878192 -13.092477 -181.379450 4.050166 -178.986598
Spine 79.599603 4.301534 0.686922
Head -11.233113 -0.200112 2.992810
LeftShoulder 23.371525 -62.087200 23.559409
LeftArm 51.709861 4.353223 -13.019818
LeftForeArm -2.218051 -0.000000 0.495801
LeftHand -5.717333 -0.000000 18.895902
LeftHandThumb1 -26.253704 0.000000 33.147579
RightShoulder 10.253298 27.037174 -37.533757
RightArm 53.551893 37.161599 20.484493
RightForeArm -22.958278 -0.000000 11.366616
RightHand -10.454907 -0.000000 -18.972027
RightHandThumb1 -24.326973 -0.000000 -32.862282
LeftUpLeg -120.621379 29.265614 -7.865656
LeftLeg 147.224311 -0.000000 -0.000000
LeftFoot -46.209072 19.456580 -11.714577
LeftToeBase 24.988630 -0.000000 -0.000000
RightUpLeg -119.389056 -19.828904 9.997017
RightLeg 145.009529 -0.000000 -0.000000
RightFoot -46.571471 -24.546259 14.066185
RightToeBase 24.598694 -0.000000 -0.000000
262
root 19.433716 8.886726 -13.104918 -181.410491 4.041089 -178.973184
Spine 79.596856 4.293566 0.714007
Head -11.261084 -0.166721 2.992204
LeftShoulder 23.394569 -62.130199 23.498986
LeftArm 51.789750 4.566184 -13.012034
LeftForeArm -2.009497 -0.000000 0.506248
LeftHand -5.633886 -0.000000 18.740884
LeftHandThumb1 -26.253704 0.000000 33.147579
RightShoulder 10.295789 27.007660 -37.468106
RightArm 53.468498 37.055505 20.354068
RightForeArm -23.054623 -0.000000 11.330374
RightHand -10.348221 -0.000000 -18.469579
RightHandThumb1 -24.326973 -0.000000 -32.862282
LeftUpLeg -120.532629 29.301793 -7.845245
LeftLeg 147.238920 -0.000000 -0.000000
LeftFoot -46.250191 19.404149 -11.733875
LeftToeBase 24.954863 -0.000000 -0.000000
RightUpLeg -119.293293 -19.900666 9.989587
RightLeg 145.013383 -0.000000 -0.000000
RightFoot -46.624445 -24.481100 14.083699
RightToeBase 24.626113 -0.000000 -0.000000
263
root 19.432396 8.897060 -13.115288 -181.430985 4.042122 -178.968101
Spine 79.589456 4.294374 0.718775
Head -11.318264 -0.110883 2.965703
LeftShoulder 23.399817 -62.112487 23.458575
LeftArm 51.863104 4.748706 -12.922332
LeftForeArm -1.883733 -0.000000 0.528762
LeftHand -5.498843 -0.000000 18.581290
LeftHandThumb1 -26.253704 0.000000 33.147579
RightShoulder 10.333793 26.964424 -37.423125
RightArm 53.402410 36.995617 20.268102
RightForeArm -23.178844 -0.000000 11.286439
RightHand -10.214014 -0.000000 -18.094210
RightHandThumb1 -24.326973 -0.000000 -32.862282
LeftUpLeg -120.432305 29.351470 -7.822397
LeftLeg 147.237107 -0.000000 -0.000000
LeftFoot -46.315835 19.346021 -11.731663
LeftToeBase 25.009364 -0.000000 -0.000000
RightUpLeg -119.196471 -19.951237 9.973884
RightLeg 145.010518 -0.000000 -0.000000
RightFoot -46.666383 -24.429936 14.058652
RightToeBase 24.623277 -0.000000 -0.000000
264
root 19.431418 8.912782 -13.125387 -181.456459 4.054112 -178.977959
Spine 79.608579 4.311099 0.695311
Head -11.432086 -0.058472 2.942101
LeftShoulder 23.353740 -62.090777 23.454915
LeftArm 51.954650 4.923885 -12.808645
LeftForeArm -1.734159 -0.000000 0.534770
LeftHand -5.451944 -0.000000 18.704425
LeftHandThumb1 -26.253704 0.000000 33.147579
RightShoulder 10.361953 26.955029 -37.389572
RightArm 53.318359 36.938015 20.196335
RightForeArm -23.280287 0.000000 11.259037
RightHand -10.125179 0.000000 -17.783856
RightHandThumb1 -24.326973 -0.000000 -32.862282
LeftUpLeg -120.302236 29.422849 -7.808794
LeftLeg 147.221364 -0.000000 -0.000000
LeftFoot -46.379819 19.270515 -11.744884
LeftToeBase 24.984064 -0.000000 -0.000000
RightUpLeg -119.082477 -19.991604 9.950158
RightLeg 144.992537 -0.000000 -0.000000
RightFoot -46.723042 -24.383595 14.082029
RightToeBase 24.587569 -0.000000 -0.000000
265
root 19.430093 8.922828 -13.131299 -181.428826 4.076452 -179.035006
Spine 79.546875 4.361847 0.605557
Head -11.526280 0.014075 2.934985
LeftShoulder 23.157025 -61.904032 23.577282
LeftArm 52.148982 5.040617 -12.544654
LeftForeArm -1.674988 0.000000 0.544628
LeftHand -5.443132 -0.000000 18.748416
LeftHandThumb1 -26.253704 0.000000 33.147579
RightShoulder 10.396705 26.904266 -37.315912
RightArm 53.230633 36.883125 20.071798
RightForeArm -23.321421 -0.000000 11.237164
RightHand -10.110791 0.000000 -17.515587
RightHandThumb1 -24.326973 -0.000000 -32.862282
LeftUpLeg -120.243197 29.484348 -7.877425
LeftLeg 147.199857 -0.000000 -0.000000
LeftFoot -46.428750 19.249442 -11.714857
LeftToeBase 24.935263 -0.000000 -0.000000
RightUpLeg -119.052859 -19.992335 9.880014
RightLeg 144.972717 -0.000000 -0.000000
RightFoot -46.758276 -24.413273 14.047895
RightToeBase 24.840181 -0.000000 -0.000000
266
root 19.426854 8.937332 -13.138620 -181.403456 4.076727 -179.061642
Spine 79.491082 4.360628 0.554188
Head -11.604473 0.084457 2.893809
LeftShoulder 23.025165 -61.743394 23.624419
LeftArm 52.282675 5.112412 -12.360628
LeftForeArm -1.599916 -0.000000 0.598215
LeftHand -5.459970 -0.000000 18.849257
LeftHandThumb1 -26.253704 0.000000 33.147579
RightShoulder 10.439262 26.864555 -37.270761
RightArm 53.092121 36.803644 19.901369
RightForeArm -23.219853 0.000000 11.240989
RightHand -10.145637 -0.000000 -17.269511
RightHandThumb1 -24.326973 -0.000000 -32.862282
LeftUpLeg -120.171342 29.504834 -7.915845
LeftLeg 147.176618 -0.000000 -0.000000
LeftFoot -46.504668 19.203640 -11.746877
LeftToeBase 24.954364 -0.000000 -0.000000
RightUpLeg -119.013733 -20.028232 9.858762
RightLeg 144.957860 -0.000000 -0.000000
RightFoot -46.793992 -24.343617 14.034236
RightToeBase 24.549167 -0.000000 -0.000000
